<svg xmlns="http://www.w3.org/2000/svg" width="94" height="26" viewBox="0 0 94 26">
    <g fill="#052B44" fill-rule="evenodd">
        <path d="M44.575 12.973a5.562 5.562 0 0 0-1.416-.964 3.917 3.917 0 0 0-1.718-.391c-.462 0-.888.09-1.281.27-.39.182-.586.493-.586.935 0 .42.215.722.647.903.43.18 1.129.382 2.094.603.56.12 1.13.29 1.7.512.574.22 1.09.512 1.554.873.46.362.833.804 1.113 1.326.282.523.423 1.145.423 1.868 0 .944-.191 1.742-.573 2.395a4.688 4.688 0 0 1-1.49 1.58 6.435 6.435 0 0 1-2.065.875 9.886 9.886 0 0 1-2.29.27c-1.225 0-2.424-.195-3.6-.586-1.173-.392-2.153-.97-2.936-1.733l2.77-2.922c.443.482.986.885 1.629 1.206a4.515 4.515 0 0 0 2.047.48c.402 0 .799-.094 1.19-.285.392-.191.589-.527.589-1.01 0-.461-.242-.802-.723-1.023-.483-.221-1.236-.453-2.26-.693a11.486 11.486 0 0 1-1.566-.482 4.94 4.94 0 0 1-1.402-.814 4.036 4.036 0 0 1-1.01-1.265c-.26-.501-.39-1.104-.39-1.807 0-.904.19-1.672.572-2.305a4.837 4.837 0 0 1 1.477-1.551 6.531 6.531 0 0 1 2.003-.89 8.619 8.619 0 0 1 2.183-.285c1.125 0 2.224.176 3.299.527 1.075.35 1.984.879 2.726 1.58l-2.71 2.803zM61.112 15.986c0-.482-.08-.954-.24-1.416a3.752 3.752 0 0 0-.694-1.22 3.536 3.536 0 0 0-1.115-.858c-.442-.221-.953-.332-1.537-.332-.58 0-1.094.11-1.536.332a3.376 3.376 0 0 0-1.1.858c-.29.352-.51.759-.663 1.22-.15.462-.224.934-.224 1.416 0 .482.074.954.224 1.416.153.462.377.879.68 1.25.3.372.672.668 1.113.889.443.22.954.33 1.536.33.583 0 1.095-.11 1.536-.33a3.327 3.327 0 0 0 1.117-.89c.3-.37.526-.787.676-1.25.152-.461.227-.933.227-1.415m4.76 0c0 1.225-.222 2.334-.662 3.329a7.463 7.463 0 0 1-1.809 2.53 8.258 8.258 0 0 1-2.65 1.612 8.996 8.996 0 0 1-3.225.572 9.02 9.02 0 0 1-3.207-.572 8.042 8.042 0 0 1-2.65-1.612 7.561 7.561 0 0 1-1.794-2.53c-.442-.995-.663-2.104-.663-3.33 0-1.224.221-2.328.663-3.313a7.447 7.447 0 0 1 1.793-2.5 7.776 7.776 0 0 1 2.651-1.567 9.49 9.49 0 0 1 3.207-.542c1.146 0 2.22.18 3.225.542a7.976 7.976 0 0 1 2.65 1.567 7.352 7.352 0 0 1 1.81 2.5c.44.985.66 2.089.66 3.314M78.314 4.417a4.257 4.257 0 0 0-.633-.15c-.24-.04-.483-.06-.722-.06-.463 0-.835.08-1.117.24a1.79 1.79 0 0 0-.662.648 2.693 2.693 0 0 0-.332.92c-.058.34-.09.682-.09 1.023v1.506h3.344v3.676h-3.344v11.327h-4.94V12.22h-2.74V8.544h2.74V7.098c0-.923.1-1.802.302-2.636.2-.833.546-1.566 1.04-2.199.49-.632 1.154-1.134 1.987-1.506C73.98.385 75.017.2 76.264.2c.424 0 .84.025 1.25.075.413.05.79.125 1.13.226l-.33 3.916zM88.827 17.01h-.633c-.542 0-1.09.025-1.64.075a6.706 6.706 0 0 0-1.478.287c-.432.14-.788.346-1.069.617-.282.271-.42.628-.42 1.07 0 .281.062.522.193.722.131.201.297.362.498.482.2.121.432.207.693.256.26.051.512.075.752.075 1.004 0 1.773-.275 2.305-.828.532-.552.8-1.3.8-2.244v-.512zm-9.067-6.417a8.622 8.622 0 0 1 3.087-1.897 10.55 10.55 0 0 1 3.6-.633c1.265 0 2.335.155 3.208.467.873.312 1.582.793 2.123 1.446.543.653.94 1.476 1.192 2.47.25.994.377 2.174.377 3.54v7.561h-4.52V21.95h-.09c-.383.623-.96 1.105-1.732 1.447a6.175 6.175 0 0 1-2.516.511c-.602 0-1.225-.08-1.868-.24a5.444 5.444 0 0 1-1.763-.784 4.23 4.23 0 0 1-1.31-1.446c-.34-.602-.51-1.345-.51-2.229 0-1.084.294-1.958.887-2.62.591-.663 1.355-1.176 2.29-1.537.934-.362 1.972-.603 3.118-.723a31.776 31.776 0 0 1 3.343-.18v-.243c0-.742-.26-1.289-.784-1.64-.52-.352-1.165-.528-1.926-.528-.704 0-1.38.15-2.034.452a6.458 6.458 0 0 0-1.672 1.085l-2.5-2.682zM20.006 13.928a2.72 2.72 0 0 1-2.034-.859 2.87 2.87 0 0 1-.828-2.064c0-.402.07-.779.211-1.13a2.993 2.993 0 0 1 1.506-1.581 2.58 2.58 0 0 1 1.114-.24 2.826 2.826 0 0 1 2.05.857c.26.273.466.588.617.95a2.955 2.955 0 0 1 0 2.258 2.993 2.993 0 0 1-.603.934 2.919 2.919 0 0 1-.903.633 2.685 2.685 0 0 1-1.13.242zM3.92 11.035V6.879l8.556 2.26v4.82L3.92 11.035zM14.331 25.405c-2.47 0-4.875-.382-7.215-1.145a23.213 23.213 0 0 1-6.462-3.284l1.657-3.374A20.674 20.674 0 0 0 7.99 20.51a20.103 20.103 0 0 0 6.342 1.01c2.188 0 4.302-.337 6.341-1.01a20.68 20.68 0 0 0 5.68-2.907l1.656 3.374a23.213 23.213 0 0 1-6.462 3.284 23.13 23.13 0 0 1-7.215 1.145"/>
    </g>
</svg>
