<?xml version="1.0" encoding="utf-8"?>
<!-- Generator: Adobe Illustrator 22.0.0, SVG Export Plug-In . SVG Version: 6.00 Build 0)  -->
<svg version="1.1" xmlns="http://www.w3.org/2000/svg" xmlns:xlink="http://www.w3.org/1999/xlink" x="0px" y="0px"
	 viewBox="0 0 1366 768" style="enable-background:new 0 0 1366 768;" xml:space="preserve">
<style type="text/css">
	.st0{fill:#37A9E2;}
	.st1{fill:#117EC2;}
	.st2{fill:#166598;}
	.st3{fill:#052B44;}
	.st4{fill:#53BFEA;}
	.st5{fill:#82D9F4;}
	.st6{fill:none;stroke:#166598;stroke-width:2;}
	.st7{fill:#117EC2;stroke:#166598;stroke-width:5;}
	.st8{fill:#D320A1;}
	.st9{fill:#7C0F62;}
	.st10{fill:#9E1578;}
	.st11{fill:#FFFDFF;}
	.st12{fill:#F2B0A7;}
	.st13{fill:#F9CEC3;}
	.st14{fill:#FFFFFF;}
	.st15{fill:#F781D6;}
	.st16{fill:#E535AB;}
	.st17{fill:#C62699;}
	.st18{fill:#E56EC9;}
	.st19{fill:none;stroke:#9E1578;stroke-width:2;}
	.st20{fill:#C62699;stroke:#9E1578;stroke-width:5;}
	.st21{fill:#F781D6;stroke:#9E1578;stroke-width:2;}
</style>
<g id="Layer_1">
</g>
<g id="Layer_2">
	<rect class="st16" width="1366" height="768"/>
	<path id="Fill-1_6_" class="st17" d="M1016.2,720.8c0,5.4-149.2,9.8-333.2,9.8s-333.2-4.4-333.2-9.8S499,711,683,711
		S1016.2,715.4,1016.2,720.8"/>
	<path id="Fill-1_5_" class="st17" d="M553,694.5c0,2.5-25.8,4.5-57.6,4.5s-57.6-2-57.6-4.5s25.8-4.5,57.6-4.5S553,692,553,694.5"/>
	<path id="Fill-1_4_" class="st17" d="M930,694.5c0,2.5-25.8,4.5-57.6,4.5c-31.8,0-57.6-2-57.6-4.5s25.8-4.5,57.6-4.5
		C904.2,690,930,692,930,694.5"/>
	<path id="Fill-1-Copy_1_" class="st17" d="M1265.4,718.5c0,3-34.7,5.5-77.4,5.5s-77.4-2.4-77.4-5.5c0-3,34.7-5.5,77.4-5.5
		S1265.4,715.4,1265.4,718.5"/>
	<polygon id="Fill-4_2_" class="st10" points="869.9,677 873.6,693.3 866.8,693.3 859.8,677 	"/>
	<polygon id="Fill-5_2_" class="st10" points="494.2,677 490.6,693.3 497.4,693.3 504.4,677 	"/>
	<polygon id="Fill-6_2_" class="st10" points="483.8,677.8 879.6,677.8 879.6,658.9 487.4,658.9 	"/>
	<polygon id="Fill-27_2_" class="st10" points="465.6,662.7 452.1,724.4 464.3,724.4 490.4,662.7 	"/>
	<polygon id="Fill-29_2_" class="st10" points="898.1,662.7 911.7,724.4 899.4,724.4 873.3,662.7 	"/>
	<path id="Fill-7_2_" class="st8" d="M443.4,649.3c1.4,4.9,6.1,13.4,15.7,13.4h442c11.1,0,17.2-8.1,17.2-13.4H443.4z"/>
	<polygon id="Fill-9_2_" class="st8" points="443.4,649.3 918.3,649.3 899.6,624.1 464.4,621 	"/>
	<path id="Fill-11_2_" class="st8" d="M927,503.1c3.4-37.9-19.8-62.7-53.7-62.7H499.6c-44.3,0-59.9,30.6-62.5,62.7
		s-10.9,68.3,46.7,78.1c57.7,9.9,380.5,12.1,410.1,0C923.5,569.1,924.6,529.6,927,503.1"/>
	<path id="Fill-13_2_" class="st17" d="M459.9,520c1.8-38.1,11.6-60.1,38.2-60.1h368.3c22.1,0,46.7,15.5,38.9,60.1
		s-7.6,49.1-32.7,55.9c-25,6.8-367.1,0-382.9,0s-27.7-6.1-29.8-18.2C457.9,545.6,459.9,520,459.9,520"/>
	<path id="Fill-15_2_" class="st10" d="M405.7,511.5c1.6-10.1,8.7-14.4,21.6-16.6c8.9-1.5,27.1-1.7,34.3,3.3s10.5,35.4,16.1,57
		c-6.1,11.1-11.6,63.6-11.6,63.6l-22.7,30.4C443.4,649.3,395.8,593.4,405.7,511.5"/>
	<path id="Fill-17_2_" class="st10" d="M956,511.5c-1.6-10.1-8.7-14.4-21.6-16.6c-8.9-1.5-27.1-1.7-34.3,3.3s-10.5,35.4-16.1,57
		c6.1,11.1,11.6,63.6,11.6,63.6l22.7,30.4C918.3,649.3,965.9,593.4,956,511.5"/>
	<path id="Fill-19_2_" class="st8" d="M429.4,494.6c-0.7,0.1-1.4,0.2-2.1,0.3c-12.9,2.2-20,6.5-21.6,16.6
		c-10,81.9,37.6,137.8,37.6,137.8l15.6-21C442.9,609.7,422.9,540.7,429.4,494.6"/>
	<path id="Fill-21_2_" class="st8" d="M956,511.5c-1.6-10-8.6-14.3-21.2-16.5c3.8,41.1-15.9,114.2-32.1,133.3l15.7,21
		C918.3,649.3,965.9,593.4,956,511.5"/>
	<path id="Fill-23_2_" class="st17" d="M429.1,508.1c6.6-0.7,25.5-5.8,34.2-8.2c-0.5-0.7-1.1-1.3-1.6-1.7c-7.2-5-25.4-4.8-34.3-3.3
		c-11,1.9-17.7,5.3-20.5,12.6C413.7,508.6,424.4,508.6,429.1,508.1"/>
	<path id="Fill-25_2_" class="st17" d="M954.9,507.5c-2.7-7.2-9.5-10.7-20.5-12.6c-8.9-1.5-27.1-1.7-34.3,3.3
		c-0.6,0.4-1.1,1-1.6,1.7c8.7,2.4,27.7,7.5,34.2,8.2C937.3,508.6,948,508.6,954.9,507.5"/>
	<path id="Fill-31_2_" class="st8" d="M457.3,580.7c-4.3,2.9-7.4,4.3-9.1,9.3c-1.7,5.1,1.7,20.2,5.2,27.4c3.5,7.2,10.4,8,20.3,8
		h426.4c9.9,0,13.9-8.9,14.5-17.3c0.6-8.4,0.8-17.5-0.4-21.4c-1.3-3.9-5.3-7.2-9.1-8.8s-40.5-10.8-63.1-10.8H495.8
		C488,567.2,476.8,568.9,457.3,580.7"/>
	<path id="Fill-33_2_" class="st17" d="M448.5,589.5c-0.1,0.2-0.2,0.4-0.2,0.6c-1.7,5.8,1.7,23.1,5.2,31.3
		c3.5,8.2,10.5,9.2,20.3,9.2h427.1c9.9,0,13.9-10.1,14.5-19.8c0.5-7.9,0.7-16.2,0.1-21.4h-467V589.5z"/>
	<path id="Fill-61_2_" class="st15" d="M546.1,572.4l-60.1,2.4c-11.1,0.4-20.4-8.2-20.9-19.3l-2.1-52.9
		c-0.4-11.1,8.2-20.4,19.3-20.9l60.1-2.4c11.1-0.4,20.4,8.2,20.9,19.3l2.1,52.9C565.8,562.6,557.1,571.9,546.1,572.4"/>
	<path id="Combined-Shape_7_" class="st18" d="M491.4,506.3c0.4,2.4-1.2,4.8-3.6,5.2c-2.4,0.4-4.8-1.2-5.2-3.6
		c-0.4-2.4,1.2-4.8,3.6-5.2C488.6,502.2,491,503.8,491.4,506.3z M538,502.6c0.4,2.4-1.2,4.8-3.6,5.2c-2.4,0.4-4.8-1.2-5.2-3.6
		c-0.4-2.4,1.2-4.8,3.6-5.2C535.3,498.5,537.6,500.2,538,502.6z M495.1,545.8c0.4,2.4-1.2,4.8-3.6,5.2c-2.4,0.4-4.8-1.2-5.2-3.6
		c-0.4-2.4,1.2-4.8,3.6-5.2C492.3,541.7,494.6,543.4,495.1,545.8z M541.7,542.1c0.4,2.4-1.2,4.8-3.6,5.2s-4.8-1.2-5.2-3.6
		c-0.4-2.4,1.2-4.8,3.6-5.2C538.9,538.1,541.3,539.7,541.7,542.1z"/>
	<path id="Fill-71_2_" class="st15" d="M872.6,578.8l-59.8-8.8c-11-1.6-18.7-11.9-17.1-22.9l7.7-52.6c1.6-11,11.9-18.7,22.9-17.1
		l59.8,8.8c11,1.6,18.7,11.9,17.1,22.9l-7.7,52.6C893.9,572.8,883.6,580.4,872.6,578.8"/>
	<path id="Combined-Shape_6_" class="st18" d="M830.8,503.3c0,2.5-2.1,4.5-4.6,4.5s-4.5-2.1-4.5-4.6s2.1-4.5,4.6-4.5
		C828.8,498.8,830.8,500.8,830.8,503.3z M877.5,508.4c0,2.5-2.1,4.5-4.6,4.5s-4.5-2.1-4.5-4.6s2.1-4.5,4.6-4.5
		C875.6,503.8,877.6,505.9,877.5,508.4z M827.1,543.1c0,2.5-2.1,4.5-4.6,4.5s-4.5-2.1-4.5-4.6s2.1-4.5,4.6-4.5
		S827.1,540.6,827.1,543.1z M873.8,548.1c0,2.5-2.1,4.5-4.6,4.5s-4.5-2.1-4.5-4.6s2.1-4.5,4.6-4.5
		C871.9,543.6,873.9,545.6,873.8,548.1z"/>
	<g>
		<path id="Fill-81_2_" class="st17" d="M1189,687.9c0,0,50.8-95.4-18.5-144.8c0,0-49.7,58.1-24.8,118.9L1189,687.9z"/>
		<path id="Fill-96_2_" class="st8" d="M1171.2,669.5c0,0,5.3-108,90.2-114.8c0,0,12.9,75.4-39.6,114.8H1171.2z"/>
		<polygon id="Fill-93_2_" class="st17" points="1134.1,716.7 1246.7,716.7 1246.7,653.5 1134.1,653.5 		"/>
	</g>
	<g>
		<path id="Fill-108_2_" class="st15" d="M1231.1,233.2c0,11.1-9,20-20.1,20c-11.1,0-20.1-9-20.1-20c0-11.1,9-20,20.1-20
			C1222.1,213.2,1231.1,222.2,1231.1,233.2"/>
		<path id="Fill-109_2_" class="st17" d="M1215.9,170.3V-33.2h-9.9v203.5c-38.7,2.5-69.3,34.7-69.3,74h148.5
			C1285.2,205,1254.7,172.9,1215.9,170.3"/>
	</g>
	<g>
		<polyline class="st19" points="283.8,344.5 327.9,302.2 368.2,344.5 		"/>
		<rect id="Rectangle_4_" x="264.3" y="329.5" class="st20" width="127" height="127"/>
		<path class="st15" d="M364.1,404.1c-0.7-0.4-1.4-0.7-2.1-0.9v-21.5c0.8-0.2,1.5-0.5,2.2-0.9c3.9-2.2,5.2-7.2,3-11
			c-2.2-3.9-7.2-5.2-11-3c-0.7,0.4-1.3,0.9-1.8,1.5l-18.6-10.8l0,0c0.2-0.7,0.3-1.5,0.3-2.3c0-4.5-3.6-8.1-8.1-8.1s-8.1,3.6-8.1,8.1
			c0,0.8,0.1,1.6,0.3,2.3l-18.6,10.8c-0.5-0.6-1.2-1.1-1.8-1.4c-3.9-2.2-8.8-0.9-11,3s-0.9,8.8,3,11c0.7,0.4,1.4,0.7,2.2,0.9v21.5
			c-0.7,0.2-1.5,0.5-2.1,0.9c-3.9,2.2-5.2,7.2-3,11c2.2,3.9,7.2,5.2,11,3c0.7-0.4,1.3-0.9,1.8-1.4l18.6,10.8
			c-0.2,0.7-0.3,1.5-0.3,2.3c0,4.5,3.6,8.1,8.1,8.1s8.1-3.6,8.1-8.1c0-0.9-0.1-1.7-0.4-2.5l18.5-10.7c0.6,0.6,1.2,1.2,2,1.6
			c3.9,2.2,8.8,0.9,11-3C369.3,411.2,368,406.3,364.1,404.1z M297.9,403.3c-0.1,0-0.2-0.1-0.3-0.1v-21.6c2.1-0.5,3.9-1.8,5-3.8
			c1.1-1.9,1.4-4.2,0.8-6.3l18.7-10.8c0.1,0.1,0.2,0.2,0.2,0.2l0,0L297.9,403.3z M333.8,424.2c-1.5-1.7-3.7-2.6-6-2.6
			c-2.2,0-4.3,0.9-5.8,2.5l-18.7-10.8c0-0.1,0.1-0.2,0.1-0.3h48.8c0,0.2,0.1,0.4,0.1,0.5L333.8,424.2z M353.1,407
			c-0.4,0.7-0.7,1.4-0.9,2.1h-48.8c-0.2-0.7-0.5-1.5-0.9-2.1c-0.4-0.7-0.9-1.3-1.4-1.8l24.4-42.3c0.7,0.2,1.5,0.3,2.3,0.3
			s1.5-0.1,2.3-0.3l24.4,42.3C353.9,405.7,353.5,406.3,353.1,407z M358.1,403.2c-0.1,0-0.2,0.1-0.3,0.1L333.4,361
			c0.1-0.1,0.1-0.1,0.2-0.2l0,0l18.7,10.8c-0.6,2.1-0.3,4.4,0.8,6.2c1.1,2,3,3.3,5,3.8L358.1,403.2L358.1,403.2z"/>
		<circle class="st21" cx="327.8" cy="303.2" r="3"/>
	</g>
	<g>
		<g>
			<rect x="715.5" y="717.1" class="st8" width="76.3" height="4.9"/>
			<g>
				<path class="st9" d="M672.4,579.2v-43.1c0,0,96,1.2,120.7,40.6L672.4,579.2z"/>
				<polygon class="st9" points="736.4,675.3 752.4,675.3 793,576.8 773.3,565.7 754.5,577.6 				"/>
				<path class="st10" d="M751.6,686.4h-16.9c-2.5,0-4.5-2-4.5-4.5v-2.1c0-2.5,2-4.5,4.5-4.5h16.9c2.5,0,4.5,2,4.5,4.5v2.1
					C756.1,684.3,754.1,686.4,751.6,686.4z"/>
				<path class="st10" d="M740.1,702.4c0,0,50.5,1.2,51.7,14.8h-76.3c0,0,1.2-14.8,8.6-14.8S740.1,702.4,740.1,702.4z"/>
				<path class="st11" d="M740.1,702.4l8.3-16h-15.7l-7.4,16C725.3,702.4,729,711,740.1,702.4z"/>
				<path class="st8" d="M751.8,709.7h22.2c1.8,0,3.5-0.9,4.5-2.3c-10.3-3-24-4.3-31.9-4.8c-0.1,0.5-0.2,1-0.2,1.5
					C746.2,707.3,748.7,709.7,751.8,709.7z"/>
			</g>
		</g>
		<polygon class="st12" points="693.3,395.1 698.2,425.3 673.6,438.9 655.1,430.3 657.6,399.5 		"/>
		<g>
			<rect x="565.2" y="717.1" class="st8" width="76.3" height="4.9"/>
			<g>
				<path class="st9" d="M684.7,579.2v-43.1c0,0-103.9,1.2-130.5,40.6L684.7,579.2z"/>
				<polygon class="st9" points="620.7,675.3 604.3,675.3 554.2,576.8 577.3,565.7 599.3,577.6 				"/>
				<path class="st10" d="M605.5,686.4h16.9c2.5,0,4.5-2,4.5-4.5v-2.1c0-2.5-2-4.5-4.5-4.5h-16.9c-2.5,0-4.5,2-4.5,4.5v2.1
					C601,684.3,603,686.4,605.5,686.4z"/>
				<path class="st10" d="M617,702.4c0,0-50.5,1.2-51.7,14.8h76.3c0,0-1.2-14.8-8.6-14.8S617,702.4,617,702.4z"/>
				<path class="st11" d="M617,702.4l-8.3-16h15.7l7.4,16C631.7,702.4,628,711,617,702.4z"/>
				<path class="st8" d="M605.3,709.7h-22.2c-1.8,0-3.5-0.9-4.5-2.3c10.3-3,24-4.3,31.9-4.8c0.1,0.5,0.2,1,0.2,1.5
					C610.8,707.3,608.3,709.7,605.3,709.7z"/>
			</g>
		</g>
		<path class="st13" d="M652.7,392.1l7.7,21c0.5,1.5,1.9,2.4,3.5,2.4h18.4c1.5,0,2.8-0.9,3.4-2.3l8.9-21.1c0,0,13.5,2.5,12.3-20.9
			c0,0,0-4.9-4.9-3.7l4.9-17.2l-11.1-7.4l-23.4-8.6l-27.1,12.3l-1.2,22.2c0,0-11.1-2.5-1.2,18.5
			C642.8,387.2,647.7,393.3,652.7,392.1z"/>
		<polygon class="st9" points="652,380.4 652,355.8 687.8,355.8 682.8,350.8 696.4,350.8 696.4,377.9 700.1,377.9 708.7,349.6 
			695.1,342.2 711.1,337.3 673,327.4 637.3,341 647.1,380.4 		"/>
		<path class="st14" d="M730.2,456.1l-14.8,38.2v46l-78.2,0.1L633,466l2.5-34.5l18.5-4.9c0,0,23.4,18.5,44.3-4.9h23.4L730.2,456.1z"
			/>
		<path class="st14" d="M774.6,443.8l33.2-9.8c0,0,2.5-9.8-9.8-12.3h-99.7l32,34.5L774.6,443.8z"/>
		<path class="st14" d="M781.9,468.4L770.9,429c0,0,16-6.2,32-2.5l4.9,7.4l-9.8,34.5H781.9z"/>
		<path class="st14" d="M639,530l-6-64l11.1-18.5l-8.6-16c0,0-16-1.2-18.5,9.8c0,0-14.8,38.2-9.8,46.8l16,40.6L639,530z"/>
		<path class="st12" d="M781.9,468.4c0,0-4.9,11.1-17.2,18.5c0,0-3.7,12.3,11.1,1.2c0,0,0,28.3,17.2,24.6c0,0,16,1.2,8.6-19.7
			c0,0,7.4-13.5-3.7-24.6H781.9z"/>
	</g>
	<g>
		<rect x="611" y="481" class="st10" width="123" height="73"/>
		<circle class="st15" cx="672.5" cy="518.5" r="8.5"/>
	</g>
	<g>
		<path id="Fill-1_7_" class="st17" d="M406,718.5c0,2.5-35,4.5-78.1,4.5s-78.1-2-78.1-4.5s35-4.5,78.1-4.5S406,716,406,718.5"/>
		<g>
			<path class="st17" d="M396.7,549.2h-62.9L322.4,502h-33l6.1,30.5l-15.5,16.6H254v30.7h11.8V719h14.2v-33h93.2v33h14.2V579.8h9.4
				V549.2z M297.3,541.7l1.5,7.4h-7.1L297.3,541.7z M363.7,675.4v-18.9h-18.9v18.9h-9.1v-20h-19.6v20h-36.2v-42.5h93.2v42.5H363.7z
				 M373.1,622.3h-25.9v-22.4h-18.9v22.4h-3.5V594h-28.3v28.3h-16.5v-42.5h93.2V622.3z"/>
			<polygon class="st10" points="302.7,544.5 295.1,506.7 318.7,506.7 327.8,544.5 			"/>
		</g>
	</g>
</g>
</svg>
